<svg xmlns="http://www.w3.org/2000/svg" viewBox="0 0 42.59 11.56"><defs><style>.cls-1{fill:#686868;}</style></defs><g id="Слой_2" data-name="Слой 2"><g id="Слой_1-2" data-name="Слой 1"><path class="cls-1" d="M2.3.47,4.49,6.66,6.67.47H9V9H7.21V6.67l.18-4L5.09,9H3.88L1.58,2.65l.18,4V9H0V.47Z"/><path class="cls-1" d="M12.77,6.6l1.17-3.94h1.82L13.21,10l-.14.34a1.94,1.94,0,0,1-1.88,1.24,2.9,2.9,0,0,1-.75-.11V10.17h.26a1.5,1.5,0,0,0,.72-.14,1,1,0,0,0,.37-.49L12,9,9.77,2.66h1.82Z"/><path class="cls-1" d="M19.52,9V.47h3a4,4,0,0,1,2.36.59,2.06,2.06,0,0,1,.8,1.75,2,2,0,0,1-.32,1.1,1.91,1.91,0,0,1-.9.7,1.84,1.84,0,0,1,1,.66,2,2,0,0,1,.37,1.22,2.28,2.28,0,0,1-.78,1.87A3.58,3.58,0,0,1,22.84,9Zm1.76-5h1.3c.89,0,1.33-.37,1.33-1.06a1,1,0,0,0-.33-.83,1.79,1.79,0,0,0-1.07-.26H21.28Zm0,1.25v2.3h1.51a1.46,1.46,0,0,0,1-.3,1,1,0,0,0,.35-.82c0-.78-.41-1.17-1.22-1.18Z"/><path class="cls-1" d="M28.86,9h-1.7V0h1.7Z"/><path class="cls-1" d="M30,5.77a3.77,3.77,0,0,1,.36-1.68A2.63,2.63,0,0,1,31.4,3,3,3,0,0,1,33,2.54a2.87,2.87,0,0,1,2.1.79A3.12,3.12,0,0,1,36,5.46v.43a3.34,3.34,0,0,1-.81,2.35,3.15,3.15,0,0,1-4.37,0A3.35,3.35,0,0,1,30,5.85Zm1.69.12A2.32,2.32,0,0,0,32,7.27a1.22,1.22,0,0,0,1.93,0,2.53,2.53,0,0,0,.35-1.51A2.26,2.26,0,0,0,34,4.4a1.2,1.2,0,0,0-1.93,0A2.62,2.62,0,0,0,31.68,5.89Z"/><path class="cls-1" d="M36.79,5.78a3.69,3.69,0,0,1,.7-2.35,2.25,2.25,0,0,1,1.87-.89A2,2,0,0,1,41,3.26l.07-.6h1.54V8.79a2.75,2.75,0,0,1-.38,1.45,2.37,2.37,0,0,1-1.07.93,3.63,3.63,0,0,1-1.6.33,3.56,3.56,0,0,1-1.36-.28,2.44,2.44,0,0,1-1-.72l.75-1a2,2,0,0,0,1.53.71,1.45,1.45,0,0,0,1-.36,1.36,1.36,0,0,0,.38-1V8.46a2,2,0,0,1-1.54.66,2.23,2.23,0,0,1-1.85-.9,3.7,3.7,0,0,1-.71-2.37Zm1.69.13a2.3,2.3,0,0,0,.35,1.35,1.1,1.1,0,0,0,1,.49,1.19,1.19,0,0,0,1.11-.58V4.5a1.18,1.18,0,0,0-1.1-.58,1.12,1.12,0,0,0-1,.5A2.62,2.62,0,0,0,38.48,5.91Z"/></g></g></svg>